HIERARCHY
ROOT Hips
{
  OFFSET -149.447 72.2028 470.672
  CHANNELS 6 Xposition Yposition Zposition Zrotation Xrotation Yrotation
  JOINT Spine
  {
    OFFSET 0 8 -1.42706e-05
    CHANNELS 6 Xposition Yposition Zposition Zrotation Xrotation Yrotation
    JOINT Spine1
    {
      OFFSET 0 8 1.86679e-05
      CHANNELS 6 Xposition Yposition Zposition Zrotation Xrotation Yrotation
      JOINT Spine2
      {
        OFFSET 2.04324e-05 8 0
        CHANNELS 6 Xposition Yposition Zposition Zrotation Xrotation Yrotation
        JOINT Spine3
        {
          OFFSET 0 8 0
          CHANNELS 6 Xposition Yposition Zposition Zrotation Xrotation Yrotation
          JOINT Neck
          {
            OFFSET -0.000137495 17 5.0987e-05
            CHANNELS 6 Xposition Yposition Zposition Zrotation Xrotation Yrotation
            JOINT Head
            {
              OFFSET 0 10.8 2.06994e-05
              CHANNELS 6 Xposition Yposition Zposition Zrotation Xrotation Yrotation
              End Site
              {
                OFFSET 0 20.25 0
              }
            }
          }
          JOINT LeftShoulder
          {
            OFFSET 4.99986 17 -0.000249205
            CHANNELS 6 Xposition Yposition Zposition Zrotation Xrotation Yrotation
            JOINT LeftShoulder2
            {
              OFFSET 6.45 0 0
              CHANNELS 6 Xposition Yposition Zposition Zrotation Xrotation Yrotation
              JOINT LeftArm
              {
                OFFSET 6.44998 9.2175e-05 0
                CHANNELS 6 Xposition Yposition Zposition Zrotation Xrotation Yrotation
                JOINT LeftForeArm
                {
                  OFFSET 0 -32.4 -2
                  CHANNELS 6 Xposition Yposition Zposition Zrotation Xrotation Yrotation
                  JOINT LeftHand
                  {
                    OFFSET -1.12788e-05 -25.65 2.00001
                    CHANNELS 6 Xposition Yposition Zposition Zrotation Xrotation Yrotation
                    JOINT LeftHandThumb1
                    {
                      OFFSET -0.49998 -1.49997 2.64999
                      CHANNELS 6 Xposition Yposition Zposition Zrotation Xrotation Yrotation
                      JOINT LeftHandThumb2
                      {
                        OFFSET 0 -3.80001 3.7
                        CHANNELS 6 Xposition Yposition Zposition Zrotation Xrotation Yrotation
                        JOINT LeftHandThumb3
                        {
                          OFFSET -1.69262e-05 -3.00005 2.70001
                          CHANNELS 6 Xposition Yposition Zposition Zrotation Xrotation Yrotation
                          End Site
                          {
                            OFFSET 1.72651e-05 -2.29998 1.79999
                          }
                        }
                      }
                    }
                    JOINT LeftHandIndex
                    {
                      OFFSET 1.26244e-05 -1.89999 1.59999
                      CHANNELS 6 Xposition Yposition Zposition Zrotation Xrotation Yrotation
                      JOINT LeftHandIndex1
                      {
                        OFFSET 0 -8.30002 1.9
                        CHANNELS 6 Xposition Yposition Zposition Zrotation Xrotation Yrotation
                        JOINT LeftHandIndex2
                        {
                          OFFSET 1.08529e-05 -4.49998 0
                          CHANNELS 6 Xposition Yposition Zposition Zrotation Xrotation Yrotation
                          JOINT LeftHandIndex3
                          {
                            OFFSET 0 -3.39995 -1.01941e-05
                            CHANNELS 6 Xposition Yposition Zposition Zrotation Xrotation Yrotation
                            End Site
                            {
                              OFFSET 0 -2.59998 1.03945e-05
                            }
                          }
                        }
                      }
                    }
                    JOINT LeftHandMiddle
                    {
                      OFFSET -0.249991 -2.19997 0.400002
                      CHANNELS 6 Xposition Yposition Zposition Zrotation Xrotation Yrotation
                      JOINT LeftHandMiddle1
                      {
                        OFFSET 0 -8.30002 0.999993
                        CHANNELS 6 Xposition Yposition Zposition Zrotation Xrotation Yrotation
                        JOINT LeftHandMiddle2
                        {
                          OFFSET 0 -4.65 0
                          CHANNELS 6 Xposition Yposition Zposition Zrotation Xrotation Yrotation
                          JOINT LeftHandMiddle3
                          {
                            OFFSET 0 -3.29999 0
                            CHANNELS 6 Xposition Yposition Zposition Zrotation Xrotation Yrotation
                            End Site
                            {
                              OFFSET 0 -2.7 0
                            }
                          }
                        }
                      }
                    }
                    JOINT LeftHandRing
                    {
                      OFFSET -0.499988 -2.14998 -0.800008
                      CHANNELS 6 Xposition Yposition Zposition Zrotation Xrotation Yrotation
                      JOINT LeftHandRing1
                      {
                        OFFSET 0 -7.75002 -0.200001
                        CHANNELS 6 Xposition Yposition Zposition Zrotation Xrotation Yrotation
                        JOINT LeftHandRing2
                        {
                          OFFSET 0 -3.79998 -1.51001e-05
                          CHANNELS 6 Xposition Yposition Zposition Zrotation Xrotation Yrotation
                          JOINT LeftHandRing3
                          {
                            OFFSET 0 -3.40001 1.95373e-05
                            CHANNELS 6 Xposition Yposition Zposition Zrotation Xrotation Yrotation
                            End Site
                            {
                              OFFSET 0 -2.6 0
                            }
                          }
                        }
                      }
                    }
                    JOINT LeftHandPinky
                    {
                      OFFSET -0.749986 -1.74998 -1.84999
                      CHANNELS 6 Xposition Yposition Zposition Zrotation Xrotation Yrotation
                      JOINT LeftHandPinky1
                      {
                        OFFSET 0 -7.15001 -1
                        CHANNELS 6 Xposition Yposition Zposition Zrotation Xrotation Yrotation
                        JOINT LeftHandPinky2
                        {
                          OFFSET 0 -3 0
                          CHANNELS 6 Xposition Yposition Zposition Zrotation Xrotation Yrotation
                          JOINT LeftHandPinky3
                          {
                            OFFSET -1.48275e-05 -2.35 0
                            CHANNELS 6 Xposition Yposition Zposition Zrotation Xrotation Yrotation
                            End Site
                            {
                              OFFSET 1.28936e-05 -2.1 0
                            }
                          }
                        }
                      }
                    }
                  }
                }
              }
            }
          }
          JOINT RightShoulder
          {
            OFFSET -5.00015 16.9999 0.000349524
            CHANNELS 6 Xposition Yposition Zposition Zrotation Xrotation Yrotation
            JOINT RightShoulder2
            {
              OFFSET -6.45 0 0
              CHANNELS 6 Xposition Yposition Zposition Zrotation Xrotation Yrotation
              JOINT RightArm
              {
                OFFSET -6.45 -9.93228e-05 -8.92357e-05
                CHANNELS 6 Xposition Yposition Zposition Zrotation Xrotation Yrotation
                JOINT RightForeArm
                {
                  OFFSET 0 -32.4 -1.99999
                  CHANNELS 6 Xposition Yposition Zposition Zrotation Xrotation Yrotation
                  JOINT RightHand
                  {
                    OFFSET 0 -25.65 2
                    CHANNELS 6 Xposition Yposition Zposition Zrotation Xrotation Yrotation
                    JOINT RightHandThumb1
                    {
                      OFFSET 0.500004 -1.49998 2.64999
                      CHANNELS 6 Xposition Yposition Zposition Zrotation Xrotation Yrotation
                      JOINT RightHandThumb2
                      {
                        OFFSET 0 -3.80001 3.70002
                        CHANNELS 6 Xposition Yposition Zposition Zrotation Xrotation Yrotation
                        JOINT RightHandThumb3
                        {
                          OFFSET 0 -3 2.7
                          CHANNELS 6 Xposition Yposition Zposition Zrotation Xrotation Yrotation
                          End Site
                          {
                            OFFSET 1.61533e-05 -2.29999 1.8
                          }
                        }
                      }
                    }
                    JOINT RightHandIndex
                    {
                      OFFSET 1.17559e-05 -1.89999 1.6
                      CHANNELS 6 Xposition Yposition Zposition Zrotation Xrotation Yrotation
                      JOINT RightHandIndex1
                      {
                        OFFSET 0 -8.29999 1.89999
                        CHANNELS 6 Xposition Yposition Zposition Zrotation Xrotation Yrotation
                        JOINT RightHandIndex2
                        {
                          OFFSET 0 -4.50001 1.20605e-05
                          CHANNELS 6 Xposition Yposition Zposition Zrotation Xrotation Yrotation
                          JOINT RightHandIndex3
                          {
                            OFFSET 0 -3.40001 0
                            CHANNELS 6 Xposition Yposition Zposition Zrotation Xrotation Yrotation
                            End Site
                            {
                              OFFSET 0 -2.6 0
                            }
                          }
                        }
                      }
                    }
                    JOINT RightHandMiddle
                    {
                      OFFSET 0.250003 -2.19999 0.399998
                      CHANNELS 6 Xposition Yposition Zposition Zrotation Xrotation Yrotation
                      JOINT RightHandMiddle1
                      {
                        OFFSET 0 -8.30001 1
                        CHANNELS 6 Xposition Yposition Zposition Zrotation Xrotation Yrotation
                        JOINT RightHandMiddle2
                        {
                          OFFSET 0 -4.64997 0
                          CHANNELS 6 Xposition Yposition Zposition Zrotation Xrotation Yrotation
                          JOINT RightHandMiddle3
                          {
                            OFFSET 0 -3.30001 0
                            CHANNELS 6 Xposition Yposition Zposition Zrotation Xrotation Yrotation
                            End Site
                            {
                              OFFSET 0 -2.7 0
                            }
                          }
                        }
                      }
                    }
                    JOINT RightHandRing
                    {
                      OFFSET 0.500011 -2.15 -0.799996
                      CHANNELS 6 Xposition Yposition Zposition Zrotation Xrotation Yrotation
                      JOINT RightHandRing1
                      {
                        OFFSET -1.15059e-05 -7.75001 -0.199999
                        CHANNELS 6 Xposition Yposition Zposition Zrotation Xrotation Yrotation
                        JOINT RightHandRing2
                        {
                          OFFSET 0 -3.8 0
                          CHANNELS 6 Xposition Yposition Zposition Zrotation Xrotation Yrotation
                          JOINT RightHandRing3
                          {
                            OFFSET 1.93288e-05 -3.39999 0
                            CHANNELS 6 Xposition Yposition Zposition Zrotation Xrotation Yrotation
                            End Site
                            {
                              OFFSET 0 -2.60001 0
                            }
                          }
                        }
                      }
                    }
                    JOINT RightHandPinky
                    {
                      OFFSET 0.750009 -1.75 -1.85
                      CHANNELS 6 Xposition Yposition Zposition Zrotation Xrotation Yrotation
                      JOINT RightHandPinky1
                      {
                        OFFSET 0 -7.14999 -1.00001
                        CHANNELS 6 Xposition Yposition Zposition Zrotation Xrotation Yrotation
                        JOINT RightHandPinky2
                        {
                          OFFSET 0 -3 0
                          CHANNELS 6 Xposition Yposition Zposition Zrotation Xrotation Yrotation
                          JOINT RightHandPinky3
                          {
                            OFFSET 0 -2.35 0
                            CHANNELS 6 Xposition Yposition Zposition Zrotation Xrotation Yrotation
                            End Site
                            {
                              OFFSET 0 -2.09999 0
                            }
                          }
                        }
                      }
                    }
                  }
                }
              }
            }
          }
        }
      }
    }
  }
  JOINT LeftUpLeg
  {
    OFFSET 8.00001 0 0
    CHANNELS 6 Xposition Yposition Zposition Zrotation Xrotation Yrotation
    JOINT LeftLeg
    {
      OFFSET -1.27993e-05 -45 -0.999959
      CHANNELS 6 Xposition Yposition Zposition Zrotation Xrotation Yrotation
      JOINT LeftFoot
      {
        OFFSET 0 -41 -2
        CHANNELS 6 Xposition Yposition Zposition Zrotation Xrotation Yrotation
        JOINT LeftToeBase
        {
          OFFSET 1.02361e-05 -7.5 12.5
          CHANNELS 6 Xposition Yposition Zposition Zrotation Xrotation Yrotation
          JOINT LeftFootToe
          {
            OFFSET 0 0 4
            CHANNELS 6 Xposition Yposition Zposition Zrotation Xrotation Yrotation
            End Site
            {
              OFFSET 0 0 0
            }
          }
        }
      }
    }
  }
  JOINT RightUpLeg
  {
    OFFSET -8.00001 0 0
    CHANNELS 6 Xposition Yposition Zposition Zrotation Xrotation Yrotation
    JOINT RightLeg
    {
      OFFSET 0 -45 -1.00002
      CHANNELS 6 Xposition Yposition Zposition Zrotation Xrotation Yrotation
      JOINT RightFoot
      {
        OFFSET 0 -41 -2
        CHANNELS 6 Xposition Yposition Zposition Zrotation Xrotation Yrotation
        JOINT RightToeBase
        {
          OFFSET 0 -7.50001 12.5
          CHANNELS 6 Xposition Yposition Zposition Zrotation Xrotation Yrotation
          JOINT RightFootToe
          {
            OFFSET 0 0 4
            CHANNELS 6 Xposition Yposition Zposition Zrotation Xrotation Yrotation
            End Site
            {
              OFFSET 0 0 0
            }
          }
        }
      }
    }
  }
}
MOTION
Frames:	3
Frame Time:	0.0111111
-160.439 73.6165 468.574 -10.194 17.0844 -172.633 2.84217e-14 8 0 7.15639 14.0132 -2.6757 0 8 0 4.09029 8.62689 16.4899 0 8 0 2.38222 2.77744 -50.6245 -2.84217e-14 8 0 2.34932 4.13537 8.24003 0 17 0 -1.51147 -0.628465 -19.3109 0 10.8 0 -3.77524 -0.610039 -46.1001 5 17 0 -16.0888 -0.714801 19.1938 6.45 1.42109e-14 -5.68434e-14 0.323207 -0.226519 -2.08609 6.45 1.42109e-14 5.68434e-14 54.8552 -17.0778 17.8478 5.68434e-14 -32.4 -2 -107.03 -40.6625 -95.6724 -2.84217e-14 -25.65 2 8.32574 -4.86884 -40.1451 -0.5 -1.5 2.65 3.57284 -12.8663 1.87337 0 -3.8 3.7 -0.108098 40.4609 0.0448418 -1.42109e-14 -3 2.7 -0.00439522 6.20762 -0.00702558 1.42109e-14 -1.9 1.6 -1.83295e-06 5.42485e-06 -1.77501e-06 -4.26326e-14 -8.3 1.9 -1.90198 11.5438 0.264291 -4.26326e-14 -4.5 2.84217e-14 -21.4834 0.0185365 -0.0108334 0 -3.4 5.68434e-14 -16.8295 0.0096572 -0.00462654 -0.25 -2.2 0.4 -1.83295e-06 5.42485e-06 -1.77501e-06 -2.84217e-14 -8.3 1 -16.2563 10.3899 1.74986 0 -4.65 -2.84217e-14 -51.7853 -0.0647067 -0.00906711 5.68434e-14 -3.3 0 -35.7755 -0.0283497 -0.0390976 -0.5 -2.15 -0.8 -1.83295e-06 5.42485e-06 -1.77501e-06 2.84217e-14 -7.75 -0.2 -64.6188 16.9391 15.1639 -5.68434e-14 -3.8 2.84217e-14 -3.6735 -0.0853011 -0.00112238 5.68434e-14 -3.4 2.84217e-14 -3.30094 -0.074858 -0.00720823 -0.75 -1.75 -1.85 -1.83295e-06 5.42485e-06 -1.77501e-06 7.10543e-14 -7.15 -1 -76.2002 14.9717 20.5561 0 -3 0 -5.50344 -0.0839365 -0.0387474 5.68434e-14 -2.35 -1.42109e-14 -4.86302 -0.0685643 -0.0401405 -5 17 0 -6.66826 -5.69277 15.089 -6.45 0 -5.68434e-14 -4.20598 3.15314 4.16363 -6.45 1.42109e-14 0 -50.5605 -23.5691 -8.26115 -1.42109e-14 -32.4 -2 -8.25265 -36.7852 -21.4685 -1.42109e-14 -25.65 2 -42.4328 26.4594 -45.6165 0.5 -1.5 2.65 21.5404 -0.425435 15.5562 5.68434e-14 -3.8 3.7 1.78344 7.51623 -0.405593 -5.68434e-14 -3 2.7 0.261164 31.9682 -0.448887 5.68434e-14 -1.9 1.6 -1.82119e-06 5.63196e-06 2.06904e-06 -5.68434e-14 -8.3 1.9 7.26176 2.38844 -0.197832 0 -4.5 -7.10543e-15 71.9443 -0.00612266 -0.0570505 -2.84217e-14 -3.4 -3.55271e-15 54.5547 -0.0572431 -0.0335923 0.25 -2.2 0.4 -1.82119e-06 5.63196e-06 2.06904e-06 0 -8.3 1 11.8566 2.67372 -0.528054 0 -4.65 0 15.3401 -0.0198202 0.0466226 -1.13687e-13 -3.3 -7.10543e-15 12.6639 -0.00683268 0.0353118 0.5 -2.15 -0.8 -1.82119e-06 5.63196e-06 2.06904e-06 -5.68434e-14 -7.75 -0.2 17.4915 6.55616 -1.58334 0 -3.8 5.32907e-15 16.521 -0.139881 0.12902 -5.68434e-14 -3.4 -5.32907e-15 12.4108 -0.0788168 0.119314 0.75 -1.75 -1.85 -1.82119e-06 5.63196e-06 2.06904e-06 -5.68434e-14 -7.15 -1 24.6031 5.19073 -2.05381 5.68434e-14 -3 1.42109e-14 19.6089 0.0112038 0.483345 5.68434e-14 -2.35 -3.55271e-15 14.2503 0.102039 0.32903 8 2.84217e-14 5.68434e-14 4.39283 -35.2656 7.76863 0 -45 -1 0.0615896 44.0871 -21.2314 -2.84217e-14 -41 -2 -9.28532 7.42423 12.8095 2.84217e-14 -7.5 12.5 6.35448e-11 1.33466e-08 2.62396e-14 0 -2.77556e-17 4 3.61022 -7.40963 35.8269 -8 0 0 5.63304 -44.8634 2.30344 0 -45 -1 -7.96003 68.7301 13.9015 0 -41 -2 -6.15187 1.66279 9.87504 0 -7.5 12.5 -3.97569e-16 7.95139e-16 -0 -5.68434e-14 -7.10543e-15 4 -2.78994 -0.377677 17.8959 
-160.428 73.6206 468.575 -10.2316 17.0672 -172.587 0 8 0 7.19089 14.019 -2.66706 -2.84217e-14 8 0 4.09019 8.63876 16.5068 -5.68434e-14 8 0 2.37734 2.77576 -50.6235 2.84217e-14 8 0 2.34814 4.14138 8.24916 0 17 0 -1.55855 -0.693048 -19.199 -2.84217e-14 10.8 0 -3.91581 -0.73718 -45.8244 5 17 -5.68434e-14 -16.1286 -0.674206 19.2406 6.45 0 -5.68434e-14 0.312952 -0.225805 -2.09756 6.45 4.26326e-14 5.68434e-14 55.0554 -17.3035 17.7352 2.84217e-14 -32.4 -2 -107.209 -40.7395 -95.972 -2.84217e-14 -25.65 2 8.09588 -5.22395 -40.4147 -0.5 -1.5 2.65 4.19445 -13.2835 2.22285 0 -3.8 3.7 -0.113291 41.2603 0.0420683 -1.42109e-14 -3 2.7 -0.00905626 6.07837 -0.00112269 2.84217e-14 -1.9 1.6 -1.83295e-06 5.42485e-06 -1.77501e-06 -4.26326e-14 -8.3 1.9 -1.83971 11.3759 0.250394 -1.42109e-14 -4.5 2.84217e-14 -22.1166 0.0187217 -0.00504175 2.84217e-14 -3.4 0 -17.2309 0.0101644 -0.000797526 -0.25 -2.2 0.4 -1.83295e-06 5.42485e-06 -1.77501e-06 -4.26326e-14 -8.3 1 -17.1278 10.2477 1.8236 0 -4.65 0 -50.7159 -0.062184 -0.00948915 1.13687e-13 -3.3 0 -35.0318 -0.0267228 -0.0377541 -0.5 -2.15 -0.8 -1.83295e-06 5.42485e-06 -1.77501e-06 2.84217e-14 -7.75 -0.2 -64.7693 16.6266 14.9859 -5.68434e-14 -3.8 0 -2.26876 -0.0604491 -0.00101608 5.68434e-14 -3.4 2.84217e-14 -2.13627 -0.054656 -0.00471446 -0.75 -1.75 -1.85 -1.83295e-06 5.42485e-06 -1.77501e-06 5.68434e-14 -7.15 -1 -75.7491 15.1072 20.426 0 -3 1.42109e-14 -3.8182 -0.0636122 -0.034444 0 -2.35 1.42109e-14 -3.45862 -0.0530138 -0.0343284 -5 17 -5.68434e-14 -6.69244 -5.65485 15.1265 -6.45 0 -5.68434e-14 -4.21196 3.15266 4.1729 -6.45 -1.42109e-14 0 -50.6688 -23.233 -8.53156 -1.42109e-14 -32.4 -2 -9.13698 -37.6468 -21.1338 0 -25.65 2 -42.9024 27.7495 -44.2679 0.5 -1.5 2.65 20.9538 -2.15402 16.0125 1.13687e-13 -3.8 3.7 1.80424 7.01439 -0.416707 0 -3 2.7 0.22242 34.8452 -0.444012 1.13687e-13 -1.9 1.6 -1.82119e-06 5.63196e-06 2.06904e-06 -5.68434e-14 -8.3 1.9 7.42862 3.03182 -0.240588 1.13687e-13 -4.5 1.42109e-14 73.5639 0.00088624 -0.0377337 -2.84217e-14 -3.4 0 56.3612 -0.0405411 -0.0271171 0.25 -2.2 0.4 -1.82119e-06 5.63196e-06 2.06904e-06 5.68434e-14 -8.3 1 12.0145 3.50793 -0.621006 0 -4.65 1.42109e-14 14.5476 -0.0319732 0.0490082 -5.68434e-14 -3.3 1.42109e-14 12.0975 -0.015077 0.0386367 0.5 -2.15 -0.8 -1.82119e-06 5.63196e-06 2.06904e-06 -5.68434e-14 -7.75 -0.2 18.281 7.06109 -1.73998 -5.68434e-14 -3.8 0 12.1519 -0.14412 0.109723 -5.68434e-14 -3.4 -1.06581e-14 9.26055 -0.0911062 0.104334 0.75 -1.75 -1.85 -1.82119e-06 5.63196e-06 2.06904e-06 0 -7.15 -1 24.6636 6.26947 -2.29082 5.68434e-14 -3 1.06581e-14 13.9702 -0.0343448 0.387107 2.84217e-14 -2.35 3.55271e-15 10.3168 0.0449857 0.275192 8 0 0 4.36649 -35.2546 7.80053 0 -45 -1 0.0679327 44.0328 -21.2441 0 -41 -2 -9.27984 7.4511 12.7842 2.84217e-14 -7.5 12.5 6.35448e-11 1.33466e-08 2.54444e-14 0 0 4 3.62046 -7.4189 35.8301 -8 0 0 5.57094 -44.8801 2.27002 0 -45 -1 -7.95514 68.7318 13.8961 0 -41 -2 -6.14144 1.66347 9.87721 5.68434e-14 -7.5 12.5 3.97569e-16 7.95139e-16 3.18055e-15 0 -7.10543e-15 4 -2.79828 -0.377718 17.8966 
-160.418 73.6205 468.575 -10.273 17.0462 -172.539 0 8 5.68434e-14 7.22801 14.0266 -2.66194 0 8 5.68434e-14 4.09051 8.65066 16.5219 0 8 5.68434e-14 2.37144 2.77408 -50.623 -2.84217e-14 8 0 2.34724 4.14692 8.25591 0 17 0 -1.60119 -0.758446 -19.0976 2.84217e-14 10.8 0 -4.04629 -0.868502 -45.5752 5 17 -5.68434e-14 -16.1595 -0.639012 19.3006 6.45 -2.84217e-14 0 0.298594 -0.225001 -2.11485 6.45 2.84217e-14 0 55.2212 -17.5184 17.6047 2.84217e-14 -32.4 -2 -107.5 -40.8041 -96.3932 -5.68434e-14 -25.65 2 8.0317 -5.55204 -40.7851 -0.5 -1.5 2.65 4.92068 -13.6525 2.80104 -1.42109e-14 -3.8 3.7 -0.116023 41.8606 0.0277545 0 -3 2.7 -0.0169307 6.08795 0.0092917 4.26326e-14 -1.9 1.6 -1.83295e-06 5.42485e-06 -1.77501e-06 -2.84217e-14 -8.3 1.9 -1.80781 11.2864 0.243891 -1.42109e-14 -4.5 2.84217e-14 -22.826 0.0194413 -0.00306283 -2.84217e-14 -3.4 -2.84217e-14 -17.675 0.0112135 0.00130086 -0.25 -2.2 0.4 -1.83295e-06 5.42485e-06 -1.77501e-06 -1.42109e-14 -8.3 1 -18.0615 10.0521 1.89958 0 -4.65 2.84217e-14 -49.4841 -0.0494525 -0.00970085 1.13687e-13 -3.3 -2.84217e-14 -34.1783 -0.0208917 -0.0296285 -0.5 -2.15 -0.8 -1.83295e-06 5.42485e-06 -1.77501e-06 1.42109e-14 -7.75 -0.2 -64.6042 16.3061 14.6829 0 -3.8 0 -1.4517 -0.0307045 -0.000419561 5.68434e-14 -3.4 -2.84217e-14 -1.41295 -0.0282123 -0.00253115 -0.75 -1.75 -1.85 -1.83295e-06 5.42485e-06 -1.77501e-06 5.68434e-14 -7.15 -1 -75.1761 15.2938 20.2783 0 -3 -2.84217e-14 -2.48846 -0.036046 -0.0227149 0 -2.35 0 -2.29718 -0.0303935 -0.02229 -5 17 -5.68434e-14 -6.71986 -5.61141 15.1561 -6.45 1.42109e-14 0 -4.2174 3.15216 4.1816 -6.45 -1.42109e-14 0 -50.7966 -22.8608 -8.7723 0 -32.4 -2 -10.2891 -38.7682 -20.8541 0 -25.65 2 -43.425 29.0695 -42.6531 0.5 -1.5 2.65 20.5275 -3.77859 16.5608 0 -3.8 3.7 1.8202 6.52798 -0.438956 0 -3 2.7 0.157988 37.9023 -0.449538 5.68434e-14 -1.9 1.6 -1.82119e-06 5.63196e-06 2.06904e-06 0 -8.3 1.9 7.3697 3.75388 -0.28754 -5.68434e-14 -4.5 0 74.6137 0.00591039 -0.0305227 -2.84217e-14 -3.4 -3.55271e-15 57.7006 -0.0312905 -0.0283905 0.25 -2.2 0.4 -1.82119e-06 5.63196e-06 2.06904e-06 0 -8.3 1 12.0479 4.39341 -0.71667 5.68434e-14 -4.65 -3.55271e-15 13.4176 -0.0429423 0.0330446 -5.68434e-14 -3.3 -3.55271e-15 11.2931 -0.0253541 0.0289324 0.5 -2.15 -0.8 -1.82119e-06 5.63196e-06 2.06904e-06 0 -7.75 -0.2 18.9975 7.59741 -1.90594 5.68434e-14 -3.8 1.06581e-14 7.90319 -0.136804 0.0759671 -5.68434e-14 -3.4 -1.06581e-14 6.16677 -0.0979703 0.072633 0.75 -1.75 -1.85 -1.82119e-06 5.63196e-06 2.06904e-06 0 -7.15 -1 24.7641 7.30267 -2.51291 5.68434e-14 -3 -7.10543e-15 8.5033 -0.0753272 0.218337 5.68434e-14 -2.35 3.55271e-15 6.47887 -0.0242315 0.161416 8 0 0 4.33905 -35.2514 7.84102 0 -45 -1 0.0753264 43.9863 -21.2576 0 -41 -2 -9.26685 7.46056 12.7557 0 -7.5 12.5 6.35448e-11 1.33466e-08 2.46493e-14 -2.84217e-14 0 4 3.62986 -7.40841 35.8332 -8 -2.84217e-14 5.68434e-14 5.50484 -44.8995 2.23374 0 -45 -1 -7.95065 68.7331 13.891 0 -41 -2 -6.13188 1.6645 9.88044 -5.68434e-14 -7.5 12.5 -7.95139e-16 1.59028e-15 -3.18055e-15 0 0 4 -2.80516 -0.37776 17.8973 
